<mxfile host="app.diagrams.net" agent="Mozilla/5.0 (Windows NT 10.0; Win64; x64) AppleWebKit/537.36 (KHTML, like Gecko) Chrome/132.0.0.0 Safari/537.36" version="26.0.10">
  <diagram name="Page-1" id="FlKXEsf6NecXJLn8cm3T">
    <mxGraphModel dx="1434" dy="746" grid="1" gridSize="10" guides="1" tooltips="1" connect="1" arrows="1" fold="1" page="1" pageScale="1" pageWidth="850" pageHeight="1100" math="0" shadow="0">
      <root>
        <mxCell id="0" />
        <mxCell id="1" parent="0" />
        <mxCell id="X1qqhUwSppJGU-iFtLjs-1" value="Transaction Processing&amp;nbsp;" style="rounded=0;whiteSpace=wrap;html=1;" parent="1" vertex="1">
          <mxGeometry x="40" y="40" width="440" height="60" as="geometry" />
        </mxCell>
        <mxCell id="X1qqhUwSppJGU-iFtLjs-2" value="API Management &amp;amp; Integration" style="rounded=0;whiteSpace=wrap;html=1;" parent="1" vertex="1">
          <mxGeometry x="520" y="40" width="280" height="60" as="geometry" />
        </mxCell>
        <mxCell id="X1qqhUwSppJGU-iFtLjs-3" value="Risk &amp;amp; Compliance" style="rounded=0;whiteSpace=wrap;html=1;" parent="1" vertex="1">
          <mxGeometry x="840" y="40" width="200" height="60" as="geometry" />
        </mxCell>
        <mxCell id="X1qqhUwSppJGU-iFtLjs-5" value="Payment Initiation" style="rounded=0;whiteSpace=wrap;html=1;align=center;" parent="1" vertex="1">
          <mxGeometry x="40" y="120" width="120" height="40" as="geometry" />
        </mxCell>
        <mxCell id="X1qqhUwSppJGU-iFtLjs-6" value="Fund Confirmation" style="rounded=0;whiteSpace=wrap;html=1;" parent="1" vertex="1">
          <mxGeometry x="200" y="120" width="120" height="40" as="geometry" />
        </mxCell>
        <mxCell id="X1qqhUwSppJGU-iFtLjs-7" value="Direct Debit Handling" style="rounded=0;whiteSpace=wrap;html=1;" parent="1" vertex="1">
          <mxGeometry x="360" y="120" width="120" height="40" as="geometry" />
        </mxCell>
        <mxCell id="X1qqhUwSppJGU-iFtLjs-8" value="API Gateway" style="rounded=0;whiteSpace=wrap;html=1;" parent="1" vertex="1">
          <mxGeometry x="520" y="120" width="120" height="40" as="geometry" />
        </mxCell>
        <mxCell id="X1qqhUwSppJGU-iFtLjs-9" value="Developer Portal" style="rounded=0;whiteSpace=wrap;html=1;" parent="1" vertex="1">
          <mxGeometry x="680" y="120" width="120" height="40" as="geometry" />
        </mxCell>
        <mxCell id="X1qqhUwSppJGU-iFtLjs-10" value="Fraud Monitoring" style="rounded=0;whiteSpace=wrap;html=1;" parent="1" vertex="1">
          <mxGeometry x="840" y="120" width="80" height="40" as="geometry" />
        </mxCell>
        <mxCell id="X1qqhUwSppJGU-iFtLjs-11" value="AML checks" style="rounded=0;whiteSpace=wrap;html=1;" parent="1" vertex="1">
          <mxGeometry x="970" y="120" width="80" height="40" as="geometry" />
        </mxCell>
        <mxCell id="X1qqhUwSppJGU-iFtLjs-14" value="SWIFT Payments" style="rounded=0;whiteSpace=wrap;html=1;" parent="1" vertex="1">
          <mxGeometry x="80" y="200" width="80" height="40" as="geometry" />
        </mxCell>
        <mxCell id="X1qqhUwSppJGU-iFtLjs-15" value="SEPA Payments" style="rounded=0;whiteSpace=wrap;html=1;" parent="1" vertex="1">
          <mxGeometry x="80" y="280" width="80" height="40" as="geometry" />
        </mxCell>
        <mxCell id="X1qqhUwSppJGU-iFtLjs-16" value="Inter-Account Payments" style="rounded=0;whiteSpace=wrap;html=1;" parent="1" vertex="1">
          <mxGeometry x="80" y="360" width="80" height="40" as="geometry" />
        </mxCell>
        <mxCell id="X1qqhUwSppJGU-iFtLjs-18" value="Account Balance" style="rounded=0;whiteSpace=wrap;html=1;" parent="1" vertex="1">
          <mxGeometry x="240" y="200" width="80" height="40" as="geometry" />
        </mxCell>
        <mxCell id="X1qqhUwSppJGU-iFtLjs-19" value="Mandate Management" style="rounded=0;whiteSpace=wrap;html=1;" parent="1" vertex="1">
          <mxGeometry x="400" y="200" width="80" height="40" as="geometry" />
        </mxCell>
        <mxCell id="X1qqhUwSppJGU-iFtLjs-20" value="Schedule Payment Processing" style="rounded=0;whiteSpace=wrap;html=1;" parent="1" vertex="1">
          <mxGeometry x="400" y="280" width="80" height="60" as="geometry" />
        </mxCell>
        <mxCell id="X1qqhUwSppJGU-iFtLjs-21" value="Request Logging" style="rounded=0;whiteSpace=wrap;html=1;" parent="1" vertex="1">
          <mxGeometry x="560" y="200" width="80" height="40" as="geometry" />
        </mxCell>
        <mxCell id="X1qqhUwSppJGU-iFtLjs-23" value="Throttling" style="rounded=0;whiteSpace=wrap;html=1;" parent="1" vertex="1">
          <mxGeometry x="560" y="280" width="80" height="40" as="geometry" />
        </mxCell>
        <mxCell id="X1qqhUwSppJGU-iFtLjs-24" value="API Documentation" style="rounded=0;whiteSpace=wrap;html=1;" parent="1" vertex="1">
          <mxGeometry x="720" y="200" width="80" height="40" as="geometry" />
        </mxCell>
        <mxCell id="X1qqhUwSppJGU-iFtLjs-25" value="Sandbox Testing" style="rounded=0;whiteSpace=wrap;html=1;" parent="1" vertex="1">
          <mxGeometry x="720" y="280" width="90" height="40" as="geometry" />
        </mxCell>
        <mxCell id="X1qqhUwSppJGU-iFtLjs-26" value="" style="endArrow=none;html=1;rounded=0;" parent="1" edge="1">
          <mxGeometry width="50" height="50" relative="1" as="geometry">
            <mxPoint x="50" y="420" as="sourcePoint" />
            <mxPoint x="50" y="160" as="targetPoint" />
          </mxGeometry>
        </mxCell>
        <mxCell id="X1qqhUwSppJGU-iFtLjs-30" value="" style="endArrow=classic;html=1;rounded=0;entryX=0;entryY=0.5;entryDx=0;entryDy=0;" parent="1" target="X1qqhUwSppJGU-iFtLjs-14" edge="1">
          <mxGeometry width="50" height="50" relative="1" as="geometry">
            <mxPoint x="50" y="220" as="sourcePoint" />
            <mxPoint x="100" y="170" as="targetPoint" />
          </mxGeometry>
        </mxCell>
        <mxCell id="X1qqhUwSppJGU-iFtLjs-32" value="" style="endArrow=classic;html=1;rounded=0;entryX=0;entryY=0.5;entryDx=0;entryDy=0;" parent="1" target="X1qqhUwSppJGU-iFtLjs-15" edge="1">
          <mxGeometry width="50" height="50" relative="1" as="geometry">
            <mxPoint x="50" y="300" as="sourcePoint" />
            <mxPoint x="100" y="250" as="targetPoint" />
          </mxGeometry>
        </mxCell>
        <mxCell id="X1qqhUwSppJGU-iFtLjs-33" value="" style="endArrow=classic;html=1;rounded=0;entryX=0;entryY=0.75;entryDx=0;entryDy=0;" parent="1" target="X1qqhUwSppJGU-iFtLjs-16" edge="1">
          <mxGeometry width="50" height="50" relative="1" as="geometry">
            <mxPoint x="50" y="390" as="sourcePoint" />
            <mxPoint x="100" y="340" as="targetPoint" />
          </mxGeometry>
        </mxCell>
        <mxCell id="X1qqhUwSppJGU-iFtLjs-34" value="" style="endArrow=none;html=1;rounded=0;" parent="1" edge="1">
          <mxGeometry width="50" height="50" relative="1" as="geometry">
            <mxPoint x="210" y="280" as="sourcePoint" />
            <mxPoint x="210" y="160" as="targetPoint" />
          </mxGeometry>
        </mxCell>
        <mxCell id="X1qqhUwSppJGU-iFtLjs-35" value="" style="endArrow=classic;html=1;rounded=0;entryX=0;entryY=0.5;entryDx=0;entryDy=0;" parent="1" edge="1">
          <mxGeometry width="50" height="50" relative="1" as="geometry">
            <mxPoint x="210" y="220" as="sourcePoint" />
            <mxPoint x="240" y="220" as="targetPoint" />
          </mxGeometry>
        </mxCell>
        <mxCell id="X1qqhUwSppJGU-iFtLjs-36" value="" style="endArrow=none;html=1;rounded=0;" parent="1" edge="1">
          <mxGeometry width="50" height="50" relative="1" as="geometry">
            <mxPoint x="370" y="360" as="sourcePoint" />
            <mxPoint x="370" y="170" as="targetPoint" />
          </mxGeometry>
        </mxCell>
        <mxCell id="X1qqhUwSppJGU-iFtLjs-37" value="" style="endArrow=classic;html=1;rounded=0;entryX=0;entryY=0.5;entryDx=0;entryDy=0;" parent="1" edge="1">
          <mxGeometry width="50" height="50" relative="1" as="geometry">
            <mxPoint x="370" y="230" as="sourcePoint" />
            <mxPoint x="400" y="230" as="targetPoint" />
          </mxGeometry>
        </mxCell>
        <mxCell id="X1qqhUwSppJGU-iFtLjs-38" value="" style="endArrow=classic;html=1;rounded=0;entryX=0;entryY=0.5;entryDx=0;entryDy=0;" parent="1" edge="1">
          <mxGeometry width="50" height="50" relative="1" as="geometry">
            <mxPoint x="370" y="310" as="sourcePoint" />
            <mxPoint x="400" y="310" as="targetPoint" />
          </mxGeometry>
        </mxCell>
        <mxCell id="X1qqhUwSppJGU-iFtLjs-40" value="" style="endArrow=none;html=1;rounded=0;" parent="1" edge="1">
          <mxGeometry width="50" height="50" relative="1" as="geometry">
            <mxPoint x="530" y="350" as="sourcePoint" />
            <mxPoint x="530" y="160" as="targetPoint" />
          </mxGeometry>
        </mxCell>
        <mxCell id="X1qqhUwSppJGU-iFtLjs-41" value="" style="endArrow=classic;html=1;rounded=0;entryX=0;entryY=0.5;entryDx=0;entryDy=0;" parent="1" edge="1">
          <mxGeometry width="50" height="50" relative="1" as="geometry">
            <mxPoint x="530" y="220" as="sourcePoint" />
            <mxPoint x="560" y="220" as="targetPoint" />
          </mxGeometry>
        </mxCell>
        <mxCell id="X1qqhUwSppJGU-iFtLjs-42" value="" style="endArrow=classic;html=1;rounded=0;entryX=0;entryY=0.5;entryDx=0;entryDy=0;" parent="1" edge="1">
          <mxGeometry width="50" height="50" relative="1" as="geometry">
            <mxPoint x="530" y="300" as="sourcePoint" />
            <mxPoint x="560" y="300" as="targetPoint" />
          </mxGeometry>
        </mxCell>
        <mxCell id="X1qqhUwSppJGU-iFtLjs-43" value="" style="endArrow=none;html=1;rounded=0;" parent="1" edge="1">
          <mxGeometry width="50" height="50" relative="1" as="geometry">
            <mxPoint x="690" y="350" as="sourcePoint" />
            <mxPoint x="690" y="160" as="targetPoint" />
          </mxGeometry>
        </mxCell>
        <mxCell id="X1qqhUwSppJGU-iFtLjs-44" value="" style="endArrow=classic;html=1;rounded=0;entryX=0;entryY=0.5;entryDx=0;entryDy=0;" parent="1" edge="1">
          <mxGeometry width="50" height="50" relative="1" as="geometry">
            <mxPoint x="690" y="220" as="sourcePoint" />
            <mxPoint x="720" y="220" as="targetPoint" />
          </mxGeometry>
        </mxCell>
        <mxCell id="X1qqhUwSppJGU-iFtLjs-45" value="" style="endArrow=classic;html=1;rounded=0;entryX=0;entryY=0.5;entryDx=0;entryDy=0;" parent="1" edge="1">
          <mxGeometry width="50" height="50" relative="1" as="geometry">
            <mxPoint x="690" y="300" as="sourcePoint" />
            <mxPoint x="720" y="300" as="targetPoint" />
          </mxGeometry>
        </mxCell>
        <mxCell id="X1qqhUwSppJGU-iFtLjs-46" value="Behavior Analysis" style="rounded=0;whiteSpace=wrap;html=1;" parent="1" vertex="1">
          <mxGeometry x="880" y="200" width="80" height="40" as="geometry" />
        </mxCell>
        <mxCell id="X1qqhUwSppJGU-iFtLjs-47" value="Transaction Blocking" style="rounded=0;whiteSpace=wrap;html=1;" parent="1" vertex="1">
          <mxGeometry x="880" y="280" width="80" height="40" as="geometry" />
        </mxCell>
        <mxCell id="X1qqhUwSppJGU-iFtLjs-48" value="" style="endArrow=none;html=1;rounded=0;" parent="1" edge="1">
          <mxGeometry width="50" height="50" relative="1" as="geometry">
            <mxPoint x="850" y="350" as="sourcePoint" />
            <mxPoint x="850" y="160" as="targetPoint" />
          </mxGeometry>
        </mxCell>
        <mxCell id="X1qqhUwSppJGU-iFtLjs-49" value="" style="endArrow=classic;html=1;rounded=0;entryX=0;entryY=0.5;entryDx=0;entryDy=0;" parent="1" edge="1">
          <mxGeometry width="50" height="50" relative="1" as="geometry">
            <mxPoint x="850" y="220" as="sourcePoint" />
            <mxPoint x="880" y="220" as="targetPoint" />
          </mxGeometry>
        </mxCell>
        <mxCell id="X1qqhUwSppJGU-iFtLjs-50" value="" style="endArrow=classic;html=1;rounded=0;entryX=0;entryY=0.5;entryDx=0;entryDy=0;" parent="1" edge="1">
          <mxGeometry width="50" height="50" relative="1" as="geometry">
            <mxPoint x="850" y="300" as="sourcePoint" />
            <mxPoint x="880" y="300" as="targetPoint" />
          </mxGeometry>
        </mxCell>
        <mxCell id="X1qqhUwSppJGU-iFtLjs-51" value="Transaction Screening" style="rounded=0;whiteSpace=wrap;html=1;" parent="1" vertex="1">
          <mxGeometry x="1010" y="200" width="80" height="40" as="geometry" />
        </mxCell>
        <mxCell id="X1qqhUwSppJGU-iFtLjs-52" value="" style="endArrow=none;html=1;rounded=0;" parent="1" edge="1">
          <mxGeometry width="50" height="50" relative="1" as="geometry">
            <mxPoint x="980" y="280" as="sourcePoint" />
            <mxPoint x="980" y="160" as="targetPoint" />
          </mxGeometry>
        </mxCell>
        <mxCell id="X1qqhUwSppJGU-iFtLjs-53" value="" style="endArrow=classic;html=1;rounded=0;entryX=0;entryY=0.5;entryDx=0;entryDy=0;" parent="1" edge="1">
          <mxGeometry width="50" height="50" relative="1" as="geometry">
            <mxPoint x="980" y="220" as="sourcePoint" />
            <mxPoint x="1010" y="220" as="targetPoint" />
          </mxGeometry>
        </mxCell>
        <mxCell id="X1qqhUwSppJGU-iFtLjs-54" value="L0" style="text;html=1;align=center;verticalAlign=middle;resizable=0;points=[];autosize=1;strokeColor=none;fillColor=none;" parent="1" vertex="1">
          <mxGeometry y="58" width="40" height="30" as="geometry" />
        </mxCell>
        <mxCell id="X1qqhUwSppJGU-iFtLjs-55" value="L1" style="text;html=1;align=center;verticalAlign=middle;resizable=0;points=[];autosize=1;strokeColor=none;fillColor=none;" parent="1" vertex="1">
          <mxGeometry y="125" width="40" height="30" as="geometry" />
        </mxCell>
        <mxCell id="X1qqhUwSppJGU-iFtLjs-56" value="L2" style="text;html=1;align=center;verticalAlign=middle;resizable=0;points=[];autosize=1;strokeColor=none;fillColor=none;" parent="1" vertex="1">
          <mxGeometry y="200" width="40" height="30" as="geometry" />
        </mxCell>
      </root>
    </mxGraphModel>
  </diagram>
</mxfile>
